<svg width="165.22880736144543" height="215.2849914550781" viewBox="0 0 125 162.86883844060296" class="css-1j8o68f"><defs id="SvgjsDefs5829"></defs><g id="SvgjsG5830" featurekey="symbolFeature-0" transform="matrix(7.120883941650391,0,0,7.120883941650391,-293.53704498100257,-274.60978347888897)" fill="#F97316"><g xmlns="http://www.w3.org/2000/svg"><path fill="#F97316" d="M50,61.436L50,61.436c-0.466,0-0.901-0.225-1.171-0.604l-5.851-8.239c0.002,0.003-0.033-0.044-0.085-0.118   l-0.214-0.302c-0.045-0.063-0.085-0.131-0.119-0.2c-0.066-0.1-0.133-0.199-0.193-0.305c-0.75-1.326-1.145-2.818-1.145-4.325   c0-4.841,3.938-8.779,8.777-8.779s8.777,3.938,8.777,8.779c0,1.658-0.466,3.27-1.35,4.669c-0.029,0.056-0.062,0.109-0.1,0.162   l-0.191,0.267l-5.967,8.392C50.901,61.211,50.465,61.436,50,61.436z M45.143,50.681l0.102,0.143   c0.02,0.024,0.058,0.081,0.076,0.106l4.681,6.592l4.919-6.917c0.01-0.017,0.021-0.034,0.031-0.051   c0.625-0.957,0.955-2.067,0.955-3.211c0-3.257-2.649-5.907-5.906-5.907c-3.256,0-5.904,2.65-5.904,5.907   c0,1.012,0.265,2.016,0.767,2.902c0.032,0.055,0.074,0.114,0.114,0.174l0.084,0.123C45.09,50.587,45.117,50.633,45.143,50.681z"></path></g></g><g id="SvgjsG5831" featurekey="nameFeature-0" transform="matrix(1,0,0,1,145,82)" fill="#f7f7f7"><path d=""></path></g></svg>