<svg width="279.6" height="82.12466587555019" viewBox="0 0 369.6666666666667 108.57922562706862" class="css-1j8o68f"><defs id="SvgjsDefs5686"></defs><g id="SvgjsG5687" featurekey="symbolFeature-0" transform="matrix(4.747255802154541,0,0,4.747255802154541,-195.69136332066836,-183.07318898592598)" fill="#f8b500"><g xmlns="http://www.w3.org/2000/svg"><path fill="#f8b500" d="M50,61.436L50,61.436c-0.466,0-0.901-0.225-1.171-0.604l-5.851-8.239c0.002,0.003-0.033-0.044-0.085-0.118   l-0.214-0.302c-0.045-0.063-0.085-0.131-0.119-0.2c-0.066-0.1-0.133-0.199-0.193-0.305c-0.75-1.326-1.145-2.818-1.145-4.325   c0-4.841,3.938-8.779,8.777-8.779s8.777,3.938,8.777,8.779c0,1.658-0.466,3.27-1.35,4.669c-0.029,0.056-0.062,0.109-0.1,0.162   l-0.191,0.267l-5.967,8.392C50.901,61.211,50.465,61.436,50,61.436z M45.143,50.681l0.102,0.143   c0.02,0.024,0.058,0.081,0.076,0.106l4.681,6.592l4.919-6.917c0.01-0.017,0.021-0.034,0.031-0.051   c0.625-0.957,0.955-2.067,0.955-3.211c0-3.257-2.649-5.907-5.906-5.907c-3.256,0-5.904,2.65-5.904,5.907   c0,1.012,0.265,2.016,0.767,2.902c0.032,0.055,0.074,0.114,0.114,0.174l0.084,0.123C45.09,50.587,45.117,50.633,45.143,50.681z"></path></g></g><g id="SvgjsG5688" featurekey="nameFeature-0" transform="matrix(1.7195656299591064,0,0,1.7195656299591064,100.04406698410646,11.804344083537313)" fill="#f7f7f7"><path d="M12.93 40.37109 c-5.8984 0 -10.313 -2.8125 -11.211 -7.7344 l4.8047 -1.1133 c0.50781 3.2031 3.1445 4.9609 6.582 4.9609 c2.7148 0 5.1758 -1.1523 5.1367 -4.082 c-0.039063 -3.0469 -3.418 -3.9258 -7.0703 -4.9609 c-4.2188 -1.2305 -8.5547 -2.6367 -8.5547 -7.7539 c0 -5.1953 4.2578 -7.9297 9.5508 -7.9297 c4.8828 0 9.5117 2.0508 10.586 7.0508 l-4.5117 1.1328 c-0.625 -2.9688 -2.9297 -4.2773 -5.8398 -4.2773 c-2.5977 0 -5.0586 1.1133 -5.0586 3.9453 c0 2.5781 2.9492 3.3789 6.3281 4.3164 c4.3555 1.2109 9.3945 2.6953 9.3945 8.2813 c0 5.7617 -4.8242 8.1641 -10.137 8.1641 z M46.094125 29.844 l-0.058594 1.1328 l-14.941 0 c0.17578 3.9063 2.6953 5.7813 5.6836 5.7813 c2.1875 0 3.9648 -1.1133 4.8633 -3.0859 l4.1016 0.70313 c-1.3672 3.7891 -4.7656 5.9961 -8.9258 5.9961 c-6.0352 0 -10.137 -3.75 -10.137 -10.195 s4.1992 -10.215 10 -10.215 c5.4102 0 9.3945 3.1641 9.4141 9.8828 z M36.699125 23.301 c-2.7539 0 -4.7852 1.3281 -5.4102 4.3164 l10.293 0 c-0.35156 -2.9102 -2.2852 -4.3164 -4.8828 -4.3164 z M68.71131249999999 29.844 l-0.058594 1.1328 l-14.941 0 c0.17578 3.9063 2.6953 5.7813 5.6836 5.7813 c2.1875 0 3.9648 -1.1133 4.8633 -3.0859 l4.1016 0.70313 c-1.3672 3.7891 -4.7656 5.9961 -8.9258 5.9961 c-6.0352 0 -10.137 -3.75 -10.137 -10.195 s4.1992 -10.215 10 -10.215 c5.4102 0 9.3945 3.1641 9.4141 9.8828 z M59.3163125 23.301 c-2.7539 0 -4.7852 1.3281 -5.4102 4.3164 l10.293 0 c-0.35156 -2.9102 -2.2852 -4.3164 -4.8828 -4.3164 z M73.4961 40 l0 -30 l4.5313 0 l0 30 l-4.5313 0 z M93.1059375 40.37109 c-5.9375 0 -10.332 -3.8477 -10.332 -10.215 c0 -6.3086 4.3555 -10.176 10.332 -10.176 c5.9961 0 10.352 3.8672 10.352 10.176 c0 6.3672 -4.375 10.215 -10.352 10.215 z M93.0659375 36.7383 c3.418 0 5.918 -2.5977 5.918 -6.582 c0 -3.9648 -2.5 -6.5625 -5.918 -6.5625 c-3.3594 0 -5.8203 2.5977 -5.8203 6.5625 c0 3.9844 2.4609 6.582 5.8203 6.582 z M116.71853125 40.35156 c-5.8984 0 -10.176 -4.0625 -10.176 -10.195 c0 -6.1133 4.2773 -10.176 10.176 -10.176 c4.668 0 8.2422 2.4805 9.3164 6.8555 l-4.1797 0.54688 c-0.76172 -2.5 -2.6953 -3.7891 -5.1758 -3.7891 c-3.2813 0 -5.6445 2.5977 -5.6445 6.5625 s2.3633 6.5625 5.6445 6.5625 c2.4805 0 4.4141 -1.2695 5.1758 -3.7695 l4.1797 0.52734 c-1.0742 4.375 -4.7266 6.875 -9.3164 6.875 z M135.17578125 40.37109 c-3.1836 0 -6.0547 -1.5234 -6.0547 -5.3516 c0 -4.1992 3.418 -5.5078 7.5195 -6.25 l2.9688 -0.54688 c1.2891 -0.25391 1.8164 -0.83984 1.8164 -1.7773 c0 -2.4219 -1.8945 -3.2227 -3.8477 -3.2227 c-2.1289 0 -3.8672 0.9375 -4.1602 3.457 l-4.043 -0.74219 c0.68359 -4.0625 3.6133 -5.9375 8.4766 -5.9375 c3.9258 0 7.8906 1.4063 7.8906 6.9336 l0 7.6172 c0 1.8555 0.48828 2.3828 1.8555 2.3828 l0.3125 0 l0 3.0664 l-2.1289 0 c-2.207 0 -3.5352 -0.78125 -3.9844 -2.5977 l-0.21484 0 c-1.5234 2.1484 -4.043 2.9688 -6.4063 2.9688 z M136.23048125 36.8359 c3.0859 0 5.4883 -2.2852 5.4883 -5.8789 l-5.0195 1.1133 c-2.0703 0.39063 -3.2227 1.0938 -3.2227 2.5781 c0 1.543 1.2109 2.1875 2.7539 2.1875 z M152.26563125 40 l0 -30 l4.5313 0 l0 30 l-4.5313 0 z"></path></g></svg>